<svg  xmlns="http://www.w3.org/2000/svg" xmlns:xlink="http://www.w3.org/1999/xlink" width="281" height="40" fill="none" xmlns:v="https://vecta.io/nano"><g fill="#fff"><path d="M51.964 24.364c.211 5.1 4.39 8.244 10.755 8.244 6.691 0 10.909-3.297 10.909-8.551 0-4.122-2.377-6.442-7.995-7.726l-3.183-.729c-3.393-.805-4.793-1.879-4.793-3.719 0-2.301 2.109-3.834 5.234-3.834 3.163 0 5.33 1.553 5.56 4.141h4.716c-.115-4.87-4.141-8.167-10.238-8.167-6.02 0-10.295 3.317-10.295 8.225 0 3.949 2.416 6.403 7.515 7.573l3.585.844c3.489.824 4.908 1.975 4.908 3.969 0 2.301-2.32 3.949-5.656 3.949-3.374 0-5.924-1.668-6.231-4.218h-4.793zM78.21 7.071v4.755h-2.914v3.681h2.914v11.235c0 3.949 1.725 5.502 6.116 5.502 1.016 0 1.956-.077 2.473-.192v-3.643c-.307.057-.92.096-1.361.096-1.687 0-2.454-.767-2.454-2.435V15.507h3.834v-3.681h-3.834V7.071H78.21zm11.868 25.077h4.774V20.319c0-2.857 1.63-4.601 4.333-4.601.805 0 1.534.115 1.936.268v-4.314c-.345-.077-.882-.192-1.496-.192-2.397 0-4.18 1.419-4.87 3.892h-.096v-3.547h-4.582v20.322zm20.456-3.278c-2.07 0-3.451-1.054-3.451-2.722 0-1.61 1.323-2.646 3.624-2.799l4.697-.288v1.553c0 2.454-2.166 4.256-4.87 4.256zm-1.438 3.604c2.608 0 5.158-1.361 6.327-3.566h.096v3.24h4.601V18.152c0-4.084-3.278-6.749-8.32-6.749-5.177 0-8.417 2.722-8.628 6.518h4.429c.307-1.687 1.745-2.78 4.007-2.78 2.358 0 3.796 1.227 3.796 3.355v1.457l-5.368.307c-4.947.307-7.727 2.473-7.727 6.078 0 3.662 2.857 6.135 6.787 6.135zm14.993-.326h4.774V11.826h-4.774v20.322zm2.377-22.987c1.496 0 2.665-1.15 2.665-2.588 0-1.457-1.169-2.607-2.665-2.607-1.476 0-2.646 1.15-2.646 2.607 0 1.438 1.17 2.588 2.646 2.588zm15.376 19.21c-3.01 0-4.927-2.416-4.927-6.442 0-3.988 1.917-6.518 4.927-6.518 3.048 0 5.023 2.569 5.023 6.518 0 3.969-1.975 6.442-5.023 6.442zm-.019 11.446c5.924 0 9.816-3.144 9.816-7.995V11.826h-4.678v3.489h-.077c-1.169-2.339-3.508-3.834-6.403-3.834-5.196 0-8.455 4.007-8.455 10.43 0 6.327 3.336 10.257 8.359 10.257 2.914 0 5.311-1.457 6.365-3.643h.115v3.432c0 2.588-1.783 4.333-4.889 4.333-2.262 0-4.007-1.054-4.524-2.607h-4.736c.48 3.566 4.084 6.135 9.107 6.135zm13.842-7.669h4.774V20.472c0-2.991 1.745-4.985 4.62-4.985 2.761 0 4.18 1.706 4.18 4.544v12.117h4.774V19.053c0-4.659-2.627-7.611-7.113-7.611-3.087 0-5.33 1.399-6.423 3.873h-.096V4.483h-4.716v27.665zM179.17 7.071v4.755h-2.914v3.681h2.914v11.235c0 3.949 1.725 5.502 6.116 5.502 1.016 0 1.955-.077 2.473-.192v-3.643a9.26 9.26 0 0 1-1.361.096c-1.687 0-2.454-.767-2.454-2.435V15.507h3.834v-3.681h-3.834V7.071h-4.774z"/><use xlink:href="#B"/><path d="M239.121 11.826h-4.717l-3.431 15.606h-.115l-3.969-15.606h-4.582l-3.969 15.606h-.096l-3.431-15.606h-4.793l5.502 20.322h4.985l3.988-14.858h.095l4.007 14.858h5.023l5.503-20.322z"/><use xlink:href="#B" x="50.384"/><path d="M264.198 39.702c4.639 0 6.882-1.706 8.627-6.749l7.343-21.127h-5.023l-4.793 16.258h-.077l-4.793-16.258h-5.215l7.228 20.341c.019.058-.268 1.074-.268 1.131-.537 1.879-1.553 2.627-3.528 2.627-.287 0-1.131-.019-1.38-.077v3.777c.249.057 1.61.077 1.879.077z"/><path d="M123.636 6.572c0-1.561 1.254-2.791 2.83-2.791 1.593 0 2.849 1.229 2.849 2.791 0 1.544-1.257 2.772-2.849 2.772-1.575 0-2.83-1.229-2.83-2.772zm2.83-2.423c-1.378 0-2.462 1.071-2.462 2.423 0 1.333 1.084 2.404 2.462 2.404 1.398 0 2.481-1.072 2.481-2.404 0-1.352-1.084-2.423-2.481-2.423zm-71.056 2c1.86-1.474 4.477-2.312 7.519-2.312 3.08 0 5.655.833 7.477 2.298s2.886 3.56 2.945 6.049l.004.188h-5.073l-.015-.168c-.11-1.242-.683-2.229-1.606-2.909s-2.218-1.064-3.771-1.064c-1.535 0-2.802.377-3.68 1.019s-1.37 1.544-1.37 2.631c0 .862.323 1.537 1.053 2.102.742.574 1.909 1.037 3.598 1.438l3.182.728c2.822.645 4.859 1.556 6.191 2.846 1.339 1.297 1.947 2.959 1.947 5.059 0 2.681-1.079 4.873-3.016 6.39s-4.704 2.345-8.077 2.345c-3.211 0-5.89-.793-7.797-2.247s-3.035-3.57-3.142-6.173l-.008-.192h5.148l.02.162c.291 2.417 2.72 4.056 6.048 4.056 1.64 0 3.014-.405 3.973-1.079s1.499-1.605 1.499-2.687c0-.944-.331-1.676-1.077-2.28-.758-.613-1.952-1.099-3.689-1.51m0 0l-3.584-.843c-2.568-.589-4.485-1.506-5.76-2.794-1.28-1.293-1.899-2.943-1.899-4.959 0-2.513 1.096-4.621 2.96-6.097m.229.289c-1.779 1.409-2.82 3.413-2.82 5.809 0 1.933.59 3.485 1.792 4.699 1.208 1.219 3.049 2.114 5.581 2.694h.001l3.585.844c1.752.414 3.012.915 3.836 1.582.836.676 1.214 1.516 1.214 2.566 0 1.219-.617 2.26-1.655 2.988s-2.488 1.145-4.185 1.145c-3.351 0-5.982-1.629-6.391-4.218h-4.439c.149 2.408 1.212 4.35 2.988 5.704 1.827 1.393 4.42 2.172 7.574 2.172 3.317 0 6.001-.818 7.85-2.266s2.875-3.528 2.875-6.1c0-2.022-.581-3.581-1.835-4.795-1.261-1.222-3.222-2.113-6.017-2.752l-3.183-.729h-.001c-1.704-.404-2.933-.881-3.739-1.505-.818-.633-1.195-1.415-1.195-2.393 0-1.213.559-2.225 1.521-2.929s2.307-1.09 3.897-1.09c1.61 0 2.984.395 3.989 1.136.966.712 1.581 1.737 1.736 3.005h4.36c-.104-2.298-1.106-4.22-2.801-5.582-1.743-1.401-4.23-2.217-7.247-2.217-2.978 0-5.509.82-7.291 2.232zm99.842-2.14h5.084v10.418c1.201-2.22 3.407-3.459 6.334-3.459 2.286 0 4.116.753 5.374 2.118s1.923 3.314 1.923 5.678v13.279h-5.142V20.03c0-1.39-.347-2.476-1.007-3.213s-1.647-1.147-2.988-1.147c-1.393 0-2.497.482-3.253 1.311s-1.184 2.03-1.184 3.49v11.86h-5.141V4.298zm.368.368V31.96h4.405V20.471c0-1.53.447-2.825 1.28-3.738s2.042-1.431 3.525-1.431c1.419 0 2.519.44 3.262 1.269s1.101 2.012 1.101 3.459v11.933h4.406v-12.91c0-2.296-.647-4.15-1.825-5.428s-2.903-1.999-5.104-1.999c-3.023 0-5.194 1.365-6.254 3.763l-.048.11h-.4V4.666h-4.348zm-77.823 2.22h5.142v4.755h3.834v4.049h-3.834v10.38c0 .809.186 1.361.54 1.712s.91.538 1.73.538a9.02 9.02 0 0 0 1.327-.093l.218-.041v4.012l-.144.032c-.537.119-1.492.196-2.513.196-2.209 0-3.796-.389-4.827-1.317-1.037-.933-1.472-2.372-1.472-4.369V15.69h-2.914v-4.049h2.914V6.886zm.368.368v4.755H75.48v3.313h2.914v11.419c0 1.953.427 3.265 1.351 4.095.928.836 2.4 1.223 4.581 1.223.921 0 1.769-.064 2.289-.158v-3.279a10.91 10.91 0 0 1-1.177.067c-.868 0-1.538-.197-1.989-.645s-.649-1.115-.649-1.973V15.322h3.834v-3.313H82.8V7.254h-4.406zm100.591-.368h5.142v4.755h3.835v4.049h-3.835v10.38c0 .809.187 1.361.54 1.712s.911.538 1.73.538c.437 0 1.037-.038 1.328-.093l.218-.041v4.012l-.145.032c-.537.119-1.492.196-2.513.196-2.209 0-3.795-.389-4.827-1.317s-1.473-2.372-1.473-4.369V15.69h-2.914v-4.049h2.914V6.886zm.368.368v4.755h-2.914v3.313h2.914v11.419c0 1.953.428 3.265 1.351 4.095.929.836 2.4 1.223 4.581 1.223.921 0 1.769-.064 2.289-.158v-3.279a10.89 10.89 0 0 1-1.177.067c-.867 0-1.538-.197-1.989-.645s-.649-1.115-.649-1.973V15.322h3.835v-3.313h-3.835V7.254h-4.406zM105.51 13.09c1.523-1.186 3.67-1.875 6.289-1.875 2.552 0 4.677.674 6.167 1.884s2.338 2.953 2.338 5.048v14.18h-4.97v-2.909c-1.293 2.018-3.745 3.235-6.238 3.235-2.004 0-3.746-.631-4.99-1.741s-1.981-2.696-1.981-4.578c0-1.856.718-3.353 2.079-4.42 1.353-1.062 3.325-1.686 5.82-1.841h.001l5.194-.297v-1.283c0-1.02-.343-1.805-.951-2.337s-1.512-.834-2.661-.834c-1.102 0-1.987.266-2.63.723s-1.05 1.108-1.196 1.906l-.027.151h-4.777l.011-.194c.108-1.951.997-3.63 2.522-4.818zm-2.141 4.644h4.081a3.27 3.27 0 0 1 1.314-1.989c.719-.511 1.683-.791 2.843-.791 1.21 0 2.207.315 2.904.925s1.076 1.506 1.076 2.614v1.631l-5.54.317c-2.452.152-4.343.764-5.616 1.763-1.267.994-1.938 2.382-1.938 4.131 0 1.78.693 3.263 1.858 4.303s2.818 1.648 4.745 1.648c2.549 0 5.031-1.332 6.164-3.468l.052-.098h.39v3.24h4.234V18.152c0-1.988-.796-3.622-2.202-4.763s-3.445-1.802-5.935-1.802c-2.557 0-4.618.672-6.063 1.797a6.05 6.05 0 0 0-2.367 4.354zm89.796-4.644c1.522-1.186 3.669-1.875 6.288-1.875 2.552 0 4.677.674 6.168 1.884s2.337 2.953 2.337 5.048v14.18h-4.969v-2.909c-1.294 2.018-3.746 3.235-6.239 3.235-2.003 0-3.746-.631-4.99-1.741s-1.981-2.696-1.981-4.578c0-1.856.719-3.353 2.079-4.42 1.353-1.062 3.326-1.686 5.82-1.841h.001l5.195-.297v-1.283c0-1.02-.343-1.805-.951-2.337s-1.512-.834-2.661-.834c-1.103 0-1.988.266-2.63.723s-1.051 1.108-1.196 1.906l-.028.151h-4.777l.011-.194c.109-1.951.997-3.63 2.523-4.818zm-2.142 4.644h4.081c.185-.822.635-1.505 1.314-1.989.719-.511 1.684-.791 2.844-.791 1.209 0 2.206.315 2.903.925s1.077 1.506 1.077 2.614v1.631l-5.541.317c-2.452.152-4.342.764-5.616 1.763-1.266.994-1.938 2.382-1.938 4.131 0 1.78.693 3.263 1.858 4.303s2.818 1.648 4.745 1.648c2.55 0 5.031-1.332 6.164-3.468l.052-.098h.391v3.24h4.233V18.152c0-1.988-.796-3.622-2.201-4.763s-3.445-1.802-5.936-1.802c-2.557 0-4.618.672-6.062 1.797-1.391 1.083-2.219 2.592-2.368 4.354zm52.526-4.644c1.522-1.186 3.669-1.875 6.288-1.875 2.552 0 4.677.674 6.168 1.884s2.337 2.953 2.337 5.048v14.18h-4.969v-2.909c-1.294 2.018-3.746 3.235-6.239 3.235-2.003 0-3.746-.631-4.99-1.741s-1.981-2.696-1.981-4.578c0-1.856.719-3.353 2.079-4.42 1.353-1.062 3.326-1.686 5.82-1.841h.001l5.195-.297v-1.283c0-1.02-.343-1.805-.951-2.337s-1.512-.834-2.661-.834c-1.103 0-1.988.266-2.63.723s-1.051 1.108-1.196 1.906l-.028.151h-4.777l.011-.194c.109-1.951.997-3.63 2.523-4.818zm-2.142 4.644h4.081a3.27 3.27 0 0 1 1.314-1.989c.719-.511 1.684-.791 2.844-.791 1.209 0 2.206.315 2.903.925s1.077 1.506 1.077 2.614v1.631l-5.541.317c-2.452.152-4.342.764-5.616 1.763-1.266.994-1.938 2.382-1.938 4.131 0 1.78.693 3.263 1.858 4.303s2.818 1.648 4.745 1.648c2.55 0 5.031-1.332 6.164-3.468l.052-.098h.391v3.24h4.233V18.152c0-1.988-.796-3.622-2.201-4.763s-3.445-1.802-5.936-1.802c-2.557 0-4.618.672-6.062 1.797-1.391 1.083-2.219 2.592-2.368 4.354zm-144.972-5.38c.867-.692 1.954-1.059 3.19-1.059.635 0 1.189.119 1.535.196l.144.032v4.728l-.249-.095c-.374-.142-1.078-.256-1.871-.256-1.311 0-2.342.422-3.046 1.171s-1.103 1.852-1.103 3.246V32.33h-5.142V11.64h4.95v2.904c.371-.907.911-1.647 1.592-2.19zm.23.288c-.797.636-1.396 1.573-1.733 2.779l-.038.135h-.42v-3.547H90.26v19.954h4.406V20.318c0-1.463.418-2.662 1.203-3.498s1.922-1.287 3.314-1.287c.677 0 1.309.08 1.752.2V11.82a6.25 6.25 0 0 0-1.311-.156c-1.161 0-2.164.343-2.96.978zm37.497 1.528c1.501-1.851 3.669-2.874 6.318-2.874 2.754 0 5.025 1.325 6.296 3.441v-3.096h5.047v20.18c0 2.479-.997 4.531-2.755 5.959S144.815 40 141.822 40c-5.074 0-8.792-2.602-9.289-6.295l-.028-.209h5.079l.042.126c.484 1.452 2.136 2.481 4.35 2.481 1.519 0 2.693-.426 3.485-1.148s1.22-1.751 1.22-3.001v-2.913c-1.185 2.01-3.519 3.308-6.296 3.308-2.564 0-4.707-1.005-6.206-2.823s-2.338-4.424-2.338-7.618c0-3.24.823-5.893 2.321-7.739zm.286.232c-1.431 1.763-2.238 4.325-2.238 7.507 0 3.133.825 5.652 2.253 7.384s3.462 2.689 5.922 2.689c2.853 0 5.179-1.425 6.199-3.539l.05-.104h.415v3.616c0 1.338-.463 2.474-1.34 3.273s-2.147 1.244-3.733 1.244c-2.252 0-4.054-1.025-4.655-2.607h-4.391c.573 3.333 4.022 5.767 8.892 5.767 2.932 0 5.341-.778 7.014-2.137s2.618-3.302 2.618-5.674V12.009h-4.309v3.489h-.375l-.051-.102c-1.137-2.275-3.412-3.733-6.239-3.733-2.546 0-4.606.98-6.032 2.738zm-10.544-2.761h5.142v20.69h-5.142v-20.69zm.368.368v19.954h4.406V12.009h-4.406zm85.505-.368h5.181l3.341 15.194 3.864-15.194h4.869l3.874 15.235 3.35-15.235h5.105l-5.602 20.69h-5.305l-3.914-14.512-3.895 14.512h-5.266l-5.602-20.69zm.481.368l5.402 19.954h4.703l3.988-14.858h.378l4.007 14.858h4.741l5.403-19.954h-4.328l-3.432 15.606h-.406l-3.969-15.606h-4.296l-3.968 15.606h-.387l-3.432-15.606h-4.404zm49.748-.368h5.613l4.694 15.921 4.694-15.921h5.419l-7.427 21.372c-.877 2.534-1.889 4.261-3.29 5.35s-3.171 1.522-5.512 1.522c-.136 0-.545-.005-.952-.017l-.577-.024c-.163-.01-.311-.022-.391-.041l-.143-.033v-4.155l.226.052c.104.024.359.043.642.055.275.012.556.017.697.017.966 0 1.669-.183 2.193-.572s.891-.997 1.153-1.907c.002-.01.003-.018.004-.021l.01-.047.034-.134.054-.21.043-.163.092-.368c.012-.051.02-.092.026-.121l-7.302-20.556zm.522.368l7.14 20.096.001.002v.002c.011.03.011.057.011.065a.39.39 0 0 1-.002.033 1.25 1.25 0 0 1-.008.056 2.5 2.5 0 0 1-.03.139l-.094.377-.042.16-.055.212-.031.127-.008.034v.013l-.007.025c-.274.961-.679 1.66-1.292 2.115s-1.404.645-2.412.645a18.67 18.67 0 0 1-.713-.017 9.06 9.06 0 0 1-.484-.031v3.404a6.52 6.52 0 0 0 .188.014 19.86 19.86 0 0 0 .566.023l.941.017c2.299 0 3.973-.423 5.287-1.445s2.299-2.672 3.167-5.18h0l7.258-20.883h-4.627l-4.793 16.258h-.352l-4.793-16.258h-4.816zm-122.132 5.276c-.825 1.09-1.298 2.677-1.298 4.644 0 1.986.474 3.553 1.297 4.618.819 1.06 1.996 1.64 3.447 1.64 1.469 0 2.671-.594 3.509-1.662s1.33-2.64 1.33-4.596c0-1.946-.487-3.533-1.331-4.628s-2.042-1.706-3.508-1.706c-1.448 0-2.625.606-3.446 1.691zm-.294-.222c.891-1.177 2.177-1.837 3.74-1.837 1.581 0 2.891.669 3.8 1.85s1.407 2.849 1.407 4.853c0 2.013-.501 3.667-1.408 4.823s-2.22 1.803-3.799 1.803c-1.56 0-2.847-.628-3.738-1.783-.888-1.149-1.374-2.803-1.374-4.843 0-2.021.486-3.694 1.372-4.866zm-22.515 5.801v1.749c0 2.581-2.275 4.44-5.053 4.44-1.065 0-1.971-.271-2.616-.775s-1.019-1.242-1.019-2.132a2.55 2.55 0 0 1 1.02-2.091c.657-.509 1.603-.813 2.775-.891h.001l4.892-.299zm87.655 0v1.749c0 2.581-2.276 4.44-5.054 4.44-1.064 0-1.971-.271-2.615-.775s-1.02-1.242-1.02-2.132a2.55 2.55 0 0 1 1.02-2.091c.657-.509 1.603-.813 2.775-.891h.001l4.893-.299zm50.384 0v1.749c0 2.581-2.276 4.44-5.054 4.44-1.064 0-1.971-.271-2.615-.775s-1.02-1.242-1.02-2.132a2.55 2.55 0 0 1 1.02-2.091c.657-.509 1.603-.813 2.775-.891h.001l4.893-.299zm-138.407.391l-4.5.276c-1.129.075-1.995.366-2.574.815a2.18 2.18 0 0 0-.878 1.8 2.25 2.25 0 0 0 .878 1.842c.563.44 1.383.697 2.389.697 2.628 0 4.685-1.745 4.685-4.072v-1.357zm87.655 0l-4.501.276c-1.129.075-1.995.366-2.574.815a2.18 2.18 0 0 0-.878 1.8c0 .778.32 1.405.878 1.842.564.44 1.383.697 2.389.697 2.628 0 4.686-1.745 4.686-4.072v-1.357zm50.384 0l-4.501.276c-1.129.075-1.995.366-2.574.815a2.18 2.18 0 0 0-.878 1.8c0 .778.32 1.405.878 1.842.564.44 1.383.697 2.389.697 2.628 0 4.686-1.745 4.686-4.072v-1.357zm-216.281-.941C29.932 34.525 12.94 35.338 12.94 35.338s-.884-2.067-1.668-5.288h-3.04a1.442 1.442 0 1 1 0-2.884h2.439 3.003a1.442 1.442 0 1 0 0-2.884h-3.4-8.832a1.442 1.442 0 1 1 0-2.884h9.653.176a1.442 1.442 0 1 0 0-2.884H10.15c.163-2.528.64-5.142 1.596-7.69H6.015a1.442 1.442 0 1 1 0-2.884h7.69 2.698a1.442 1.442 0 0 0 .007-2.884h-1.201-.189a1.46 1.46 0 0 1-1.252-1.442 1.44 1.44 0 0 1 1.442-1.442h3.063c4.047-2.634 9.192-3.043 13.974-.298 7.099 4.075 8.649 13.648 4.732 20.437zm-8.484-2.837a5.74 5.74 0 0 1-2.484 1.392 5.77 5.77 0 0 1-7.063-4.078 5.77 5.77 0 0 1 4.078-7.063 5.76 5.76 0 0 1 5.135 1.099h-1.205a1.442 1.442 0 1 0 0 2.884h3.364 2.423a1.442 1.442 0 1 1 0 2.884h-2.604-4.605a1.442 1.442 0 1 0 0 2.884h2.96z" fill-rule="evenodd"/></g><defs ><path id="B" d="M198.189 28.87c-2.071 0-3.451-1.054-3.451-2.722 0-1.61 1.322-2.646 3.623-2.799l4.697-.288v1.553c0 2.454-2.166 4.256-4.869 4.256zm-1.438 3.604c2.607 0 5.157-1.361 6.326-3.566h.096v3.24h4.602V18.152c0-4.084-3.279-6.749-8.321-6.749-5.177 0-8.417 2.722-8.627 6.518h4.428c.307-1.687 1.745-2.78 4.007-2.78 2.358 0 3.796 1.227 3.796 3.355v1.457l-5.368.307c-4.946.307-7.726 2.473-7.726 6.078 0 3.662 2.856 6.135 6.787 6.135z"/></defs></svg>